<svg width="60" height="60" viewBox="0 0 60 60" fill="none" xmlns="http://www.w3.org/2000/svg">
<path d="M17.5274 44.9253H42.4726C43.9482 44.9253 45.0548 44.5664 45.7926 43.8485C46.5304 43.1107 46.8993 42.004 46.8993 40.5285V25.0948C46.8993 23.6192 46.5304 22.5225 45.7926 21.8046C45.0548 21.0669 43.9482 20.698 42.4726 20.698H17.5274C16.0519 20.698 14.9452 21.0669 14.2074 21.8046C13.4696 22.5225 13.1007 23.6192 13.1007 25.0948V40.5285C13.1007 42.004 13.4696 43.1107 14.2074 43.8485C14.9452 44.5664 16.0519 44.9253 17.5274 44.9253ZM27.6072 34.5763C26.5504 34.5763 26.0219 34.0479 26.0219 32.9911V31.7348C23.8883 31.5953 21.7547 31.3261 19.6211 30.9273C17.5075 30.5085 15.334 29.9103 13.1007 29.1327V26.7697C15.9123 27.9063 18.684 28.694 21.4158 29.1327C24.1675 29.5514 27.0289 29.7608 30 29.7608C32.9711 29.7608 35.8225 29.5514 38.5543 29.1327C41.3061 28.694 44.0877 27.9063 46.8993 26.7697V29.1327C44.666 29.9103 42.4826 30.5085 40.349 30.9273C38.2353 31.3261 36.1117 31.5953 33.9781 31.7348V32.9911C33.9781 34.0479 33.4497 34.5763 32.3928 34.5763H27.6072ZM21.1765 21.8645H23.5992V18.8136C23.5992 17.8365 24.1077 17.348 25.1246 17.348H34.8754C35.9123 17.348 36.4307 17.8365 36.4307 18.8136V21.8645H38.8235V18.694C38.8235 17.5773 38.4746 16.7 37.7767 16.0619C37.0987 15.4038 36.1715 15.0748 34.995 15.0748H25.005C23.8285 15.0748 22.8913 15.4038 22.1934 16.0619C21.5155 16.7 21.1765 17.5773 21.1765 18.694V21.8645Z" fill="#AA4465"/>
</svg>
