<svg width="42" height="40" viewBox="0 0 42 40" fill="none" xmlns="http://www.w3.org/2000/svg">
<path d="M21 26.0156C21.9616 26.0156 22.8617 25.9017 23.7002 25.6738C24.5387 25.446 25.3089 25.1452 26.0107 24.7715C26.7171 24.3932 27.346 23.9808 27.8975 23.5342C28.4489 23.083 28.916 22.6318 29.2988 22.1807C29.6862 21.7249 29.9801 21.3057 30.1807 20.9229C30.3812 20.54 30.4814 20.2301 30.4814 19.9932C30.4814 19.7607 30.3812 19.4531 30.1807 19.0703C29.9801 18.6875 29.6862 18.2705 29.2988 17.8193C28.916 17.3636 28.4489 16.9124 27.8975 16.4658C27.346 16.0146 26.7171 15.6022 26.0107 15.2285C25.3089 14.8548 24.5365 14.554 23.6934 14.3262C22.8548 14.0983 21.957 13.9844 21 13.9844C20.0612 13.9844 19.1748 14.0983 18.3408 14.3262C17.5068 14.554 16.7367 14.8548 16.0303 15.2285C15.3239 15.6022 14.6927 16.0146 14.1367 16.4658C13.5807 16.9124 13.1068 17.3636 12.7148 17.8193C12.3275 18.2705 12.0312 18.6875 11.8262 19.0703C11.6211 19.4531 11.5186 19.7607 11.5186 19.9932C11.5186 20.2301 11.6211 20.54 11.8262 20.9229C12.0312 21.3057 12.3275 21.7249 12.7148 22.1807C13.1068 22.6318 13.5807 23.083 14.1367 23.5342C14.6927 23.9808 15.3216 24.3932 16.0234 24.7715C16.7298 25.1452 17.5 25.446 18.334 25.6738C19.168 25.9017 20.0566 26.0156 21 26.0156ZM21 24.293C20.3118 24.293 19.6533 24.2109 19.0244 24.0469C18.3955 23.8783 17.8099 23.6595 17.2676 23.3906C16.7253 23.1172 16.2354 22.8187 15.7979 22.4951C15.3604 22.167 14.9844 21.8434 14.6699 21.5244C14.3555 21.2008 14.1139 20.9046 13.9453 20.6357C13.7767 20.3623 13.6924 20.1481 13.6924 19.9932C13.6924 19.8656 13.7767 19.6742 13.9453 19.4189C14.1139 19.1592 14.3555 18.8675 14.6699 18.5439C14.9844 18.2204 15.3604 17.8945 15.7979 17.5664C16.2354 17.2337 16.7253 16.9261 17.2676 16.6436C17.8099 16.361 18.3955 16.1354 19.0244 15.9668C19.6533 15.7936 20.3118 15.707 21 15.707C21.6882 15.707 22.3444 15.7936 22.9688 15.9668C23.5977 16.1354 24.1833 16.361 24.7256 16.6436C25.2725 16.9261 25.7646 17.2337 26.2021 17.5664C26.6442 17.8945 27.0202 18.2204 27.3301 18.5439C27.6445 18.8675 27.8861 19.1592 28.0547 19.4189C28.2233 19.6742 28.3076 19.8656 28.3076 19.9932C28.3076 20.1481 28.2233 20.3623 28.0547 20.6357C27.8861 20.9046 27.6445 21.2008 27.3301 21.5244C27.0202 21.8434 26.6442 22.167 26.2021 22.4951C25.7646 22.8187 25.2725 23.1172 24.7256 23.3906C24.1833 23.6595 23.5977 23.8783 22.9688 24.0469C22.3444 24.2109 21.6882 24.293 21 24.293ZM21.0068 23.4248C21.4808 23.4248 21.9251 23.3359 22.3398 23.1582C22.7591 22.9759 23.1237 22.7275 23.4336 22.4131C23.748 22.0941 23.9941 21.7295 24.1719 21.3193C24.3496 20.9046 24.4385 20.4626 24.4385 19.9932C24.4385 19.5192 24.3496 19.0749 24.1719 18.6602C23.9941 18.2454 23.748 17.8831 23.4336 17.5732C23.1237 17.2588 22.7591 17.015 22.3398 16.8418C21.9251 16.6641 21.4808 16.5752 21.0068 16.5752C20.5283 16.5752 20.0794 16.6641 19.6602 16.8418C19.2454 17.015 18.8809 17.2588 18.5664 17.5732C18.252 17.8831 18.0059 18.2454 17.8281 18.6602C17.6549 19.0749 17.5684 19.5192 17.5684 19.9932C17.5684 20.4626 17.6572 20.9046 17.835 21.3193C18.0127 21.7295 18.2588 22.0941 18.5732 22.4131C18.8877 22.7275 19.2523 22.9759 19.667 23.1582C20.0817 23.3359 20.5283 23.4248 21.0068 23.4248ZM21 21.0527C20.7083 21.0527 20.46 20.9479 20.2549 20.7383C20.0498 20.5286 19.9473 20.2803 19.9473 19.9932C19.9473 19.7061 20.0498 19.46 20.2549 19.2549C20.46 19.0498 20.7083 18.9473 21 18.9473C21.2917 18.9473 21.54 19.0498 21.7451 19.2549C21.9548 19.46 22.0596 19.7061 22.0596 19.9932C22.0596 20.2803 21.9548 20.5286 21.7451 20.7383C21.54 20.9479 21.2917 21.0527 21 21.0527Z" fill="white"/>
</svg>
