<svg width="78" height="10" viewBox="0 0 78 10" fill="none" xmlns="http://www.w3.org/2000/svg">
<circle cx="5" cy="5" r="5" fill="#AA4465"/>
<circle cx="18" cy="5" r="5" fill="#AA4465"/>
<circle cx="31" cy="5" r="5" fill="#AA4465"/>
<path d="M43.2991 8.384H44.7071C44.8351 8.384 44.9151 8.304 44.9151 8.176V6.08H47.2191C47.3471 6.08 47.4271 6.016 47.4271 5.888V4.512C47.4271 4.384 47.3471 4.304 47.2191 4.304H44.9151V2.208C44.9151 2.08 44.8351 2.016 44.7071 2.016H43.2991C43.1711 2.016 43.0911 2.08 43.0911 2.208V4.304H40.7871C40.6591 4.304 40.5791 4.384 40.5791 4.512V5.888C40.5791 6.016 40.6591 6.08 40.7871 6.08H43.0911V8.176C43.0911 8.304 43.1711 8.384 43.2991 8.384Z" fill="#AA4465"/>
</svg>
