<svg width="18" height="22" viewBox="0 0 18 22" fill="none" xmlns="http://www.w3.org/2000/svg">
<path d="M12.5938 12.2578H5.18164C5.00586 12.2578 4.85938 12.3164 4.74219 12.4336C4.625 12.5443 4.56641 12.6842 4.56641 12.8535C4.56641 13.0228 4.625 13.166 4.74219 13.2832C4.85938 13.4004 5.00586 13.459 5.18164 13.459H12.5938C12.763 13.459 12.903 13.4004 13.0137 13.2832C13.1309 13.166 13.1895 13.0228 13.1895 12.8535C13.1895 12.6842 13.1309 12.5443 13.0137 12.4336C12.903 12.3164 12.763 12.2578 12.5938 12.2578ZM12.5938 15.666H5.18164C5.00586 15.666 4.85938 15.7246 4.74219 15.8418C4.625 15.959 4.56641 16.1055 4.56641 16.2812C4.56641 16.444 4.625 16.584 4.74219 16.7012C4.85938 16.8118 5.00586 16.8672 5.18164 16.8672H12.5938C12.763 16.8672 12.903 16.8118 13.0137 16.7012C13.1309 16.584 13.1895 16.444 13.1895 16.2812C13.1895 16.1055 13.1309 15.959 13.0137 15.8418C12.903 15.7246 12.763 15.666 12.5938 15.666ZM3.81445 21.418H14.1855C15.1947 21.418 15.9499 21.1608 16.4512 20.6465C16.959 20.1387 17.2129 19.377 17.2129 18.3613V9.49414C17.2129 9.07096 17.1901 8.71615 17.1445 8.42969C17.099 8.14323 17.0078 7.88281 16.8711 7.64844C16.7409 7.40755 16.5456 7.15365 16.2852 6.88672L10.9043 1.4082C10.6569 1.1543 10.416 0.96224 10.1816 0.832031C9.94727 0.695312 9.6901 0.604167 9.41016 0.558594C9.13672 0.50651 8.81771 0.480469 8.45312 0.480469H3.81445C2.80534 0.480469 2.04688 0.73763 1.53906 1.25195C1.03776 1.76628 0.787109 2.53125 0.787109 3.54688V18.3613C0.787109 19.3835 1.03776 20.1484 1.53906 20.6562C2.04688 21.1641 2.80534 21.418 3.81445 21.418ZM3.88281 19.8457C3.38151 19.8457 3.00065 19.7155 2.74023 19.4551C2.48633 19.1947 2.35938 18.8203 2.35938 18.332V3.57617C2.35938 3.0944 2.48633 2.72005 2.74023 2.45312C3.00065 2.1862 3.38477 2.05273 3.89258 2.05273H8.23828V7.72656C8.23828 8.33854 8.39128 8.79753 8.69727 9.10352C9.00326 9.40951 9.46224 9.5625 10.0742 9.5625H15.6406V18.332C15.6406 18.8203 15.5104 19.1947 15.25 19.4551C14.9961 19.7155 14.6152 19.8457 14.1074 19.8457H3.88281ZM10.25 8.08789C10.0547 8.08789 9.91471 8.04557 9.83008 7.96094C9.75195 7.8763 9.71289 7.73633 9.71289 7.54102V2.35547L15.3379 8.08789H10.25Z" fill="black"/>
</svg>
