<svg width="26" height="20" viewBox="0 0 26 20" fill="none" xmlns="http://www.w3.org/2000/svg">
<path d="M3.27539 17.377H15.6191C15.515 17.2337 15.4206 17.084 15.3359 16.9277C15.2578 16.7715 15.1895 16.6055 15.1309 16.4297C15.0788 16.2604 15.0365 16.0781 15.0039 15.8828H3.2168C2.72852 15.8828 2.35417 15.7559 2.09375 15.502C1.83333 15.2415 1.70312 14.8574 1.70312 14.3496V3.56836C1.70312 3.06706 1.83333 2.68945 2.09375 2.43555C2.35417 2.17513 2.72852 2.04492 3.2168 2.04492H18.7637C19.2454 2.04492 19.6165 2.17513 19.877 2.43555C20.1439 2.68945 20.2773 3.07031 20.2773 3.57812V7.29883C20.5182 7.22721 20.7656 7.19466 21.0195 7.20117C21.2734 7.20117 21.5241 7.23698 21.7715 7.30859V3.56836C21.7715 2.56576 21.5143 1.8138 21 1.3125C20.4922 0.804688 19.7272 0.550781 18.7051 0.550781H2.98242C2.10352 0.550781 1.41992 0.804688 0.931641 1.3125C0.44987 1.8138 0.208984 2.56576 0.208984 3.56836V14.3496C0.208984 15.3587 0.462891 16.1139 0.970703 16.6152C1.48503 17.123 2.25326 17.377 3.27539 17.377ZM11.0098 11.5664C11.3548 11.5664 11.6934 11.4915 12.0254 11.3418C12.3574 11.1921 12.696 10.9479 13.041 10.6094L20.9707 2.81641L19.9551 1.79102L12.1914 9.45703C11.9766 9.66536 11.7715 9.81836 11.5762 9.91602C11.3874 10.0137 11.1986 10.0625 11.0098 10.0625C10.8145 10.0625 10.6191 10.0137 10.4238 9.91602C10.235 9.81185 10.0365 9.65885 9.82812 9.45703L2.02539 1.75195L1 2.77734L8.97852 10.6094C9.31706 10.9479 9.65234 11.1921 9.98438 11.3418C10.3229 11.4915 10.6647 11.5664 11.0098 11.5664ZM1.13672 15.082L2.15234 16.1074L8.48047 9.84766L7.45508 8.83203L1.13672 15.082ZM13.5391 9.84766L14.8574 11.1562C14.8574 10.9219 14.8672 10.7103 14.8867 10.5215C14.9128 10.3327 14.9551 10.1602 15.0137 10.0039C15.0723 9.84115 15.1536 9.68164 15.2578 9.52539L14.5547 8.83203L13.5391 9.84766ZM16.1953 14.7793C16.1953 15.4564 16.332 16.0195 16.6055 16.4688C16.8854 16.9245 17.3249 17.3574 17.9238 17.7676C18.5228 18.1842 19.304 18.6758 20.2676 19.2422C20.3978 19.3203 20.554 19.3626 20.7363 19.3691C20.9186 19.3822 21.0911 19.3398 21.2539 19.2422C21.9701 18.819 22.5853 18.4414 23.0996 18.1094C23.6204 17.7773 24.0436 17.4518 24.3691 17.1328C24.6947 16.8203 24.9355 16.4753 25.0918 16.0977C25.248 15.7266 25.3262 15.2871 25.3262 14.7793V10.9707C25.3262 10.6647 25.2611 10.4076 25.1309 10.1992C25.0007 9.99089 24.7793 9.82161 24.4668 9.69141C24.3105 9.6263 24.0859 9.53841 23.793 9.42773C23.5065 9.31706 23.1973 9.20312 22.8652 9.08594C22.5397 8.96875 22.2305 8.86133 21.9375 8.76367C21.651 8.65951 21.4329 8.57812 21.2832 8.51953C21.1139 8.46094 20.9316 8.4349 20.7363 8.44141C20.5475 8.44141 20.3522 8.48047 20.1504 8.55859C20.0202 8.61068 19.8184 8.68555 19.5449 8.7832C19.2715 8.88086 18.972 8.98828 18.6465 9.10547C18.321 9.21615 18.0117 9.32682 17.7188 9.4375C17.4323 9.54167 17.2109 9.6263 17.0547 9.69141C16.7422 9.82161 16.5208 9.99089 16.3906 10.1992C16.2604 10.4076 16.1953 10.6647 16.1953 10.9707V14.7793ZM20.7559 17.7676V9.92578C20.8145 9.92578 20.8698 9.92904 20.9219 9.93555C20.9805 9.94206 21.0391 9.95833 21.0977 9.98438C21.2669 10.0495 21.4557 10.1211 21.6641 10.1992C21.8724 10.2708 22.084 10.349 22.2988 10.4336C22.5202 10.5117 22.7318 10.5898 22.9336 10.668C23.1419 10.7461 23.334 10.8177 23.5098 10.8828C23.6595 10.9349 23.7604 11.0033 23.8125 11.0879C23.8646 11.166 23.8906 11.2799 23.8906 11.4297V14.5938C23.8906 15.0625 23.8092 15.4434 23.6465 15.7363C23.4837 16.0228 23.1973 16.306 22.7871 16.5859C22.377 16.8659 21.8008 17.2305 21.0586 17.6797C20.9609 17.7383 20.86 17.7676 20.7559 17.7676Z" fill="black"/>
</svg>
