<svg width="24" height="24" viewBox="0 0 24 24" fill="none" xmlns="http://www.w3.org/2000/svg">
<path d="M11.9902 8.87305C12.7715 8.87305 13.4844 8.68099 14.1289 8.29688C14.7734 7.90625 15.2878 7.38867 15.6719 6.74414C16.056 6.09961 16.248 5.38997 16.248 4.61523C16.248 3.83398 16.056 3.12435 15.6719 2.48633C15.2878 1.8418 14.7734 1.32747 14.1289 0.943359C13.4844 0.559245 12.7715 0.367188 11.9902 0.367188C11.209 0.367188 10.4961 0.559245 9.85156 0.943359C9.20703 1.32747 8.69271 1.8418 8.30859 2.48633C7.92448 3.12435 7.73242 3.83398 7.73242 4.61523C7.73242 5.38997 7.92448 6.09961 8.30859 6.74414C8.69271 7.38867 9.20703 7.90625 9.85156 8.29688C10.4961 8.68099 11.209 8.87305 11.9902 8.87305ZM11.9902 7.33008C11.4824 7.33008 11.0202 7.20964 10.6035 6.96875C10.1934 6.72786 9.86458 6.40234 9.61719 5.99219C9.3763 5.58203 9.25586 5.12305 9.25586 4.61523C9.25586 4.10742 9.3763 3.64518 9.61719 3.22852C9.86458 2.81185 10.1934 2.47982 10.6035 2.23242C11.0202 1.98503 11.4824 1.86133 11.9902 1.86133C12.5046 1.86133 12.9668 1.98503 13.377 2.23242C13.7871 2.47982 14.1126 2.81185 14.3535 3.22852C14.5944 3.64518 14.7148 4.10742 14.7148 4.61523C14.7148 5.12305 14.5944 5.58203 14.3535 5.99219C14.1126 6.40234 13.7871 6.72786 13.377 6.96875C12.9668 7.20964 12.5046 7.33008 11.9902 7.33008ZM19.0996 16.1973C19.8743 16.1973 20.584 16.0052 21.2285 15.6211C21.873 15.2305 22.3874 14.7129 22.7715 14.0684C23.1556 13.4238 23.3477 12.7142 23.3477 11.9395C23.3477 11.1647 23.1556 10.4551 22.7715 9.81055C22.3874 9.16602 21.873 8.65169 21.2285 8.26758C20.584 7.88346 19.8743 7.69141 19.0996 7.69141C18.3118 7.69141 17.5957 7.88346 16.9512 8.26758C16.3066 8.65169 15.7923 9.16602 15.4082 9.81055C15.0241 10.4551 14.832 11.1647 14.832 11.9395C14.832 12.7142 15.0241 13.4238 15.4082 14.0684C15.7923 14.7129 16.3066 15.2305 16.9512 15.6211C17.5957 16.0052 18.3118 16.1973 19.0996 16.1973ZM19.0996 14.6641C18.5853 14.6641 18.1198 14.5436 17.7031 14.3027C17.293 14.0618 16.9674 13.7363 16.7266 13.3262C16.4857 12.9095 16.3652 12.4473 16.3652 11.9395C16.3652 11.4316 16.4857 10.9694 16.7266 10.5527C16.9674 10.1361 17.293 9.80404 17.7031 9.55664C18.1198 9.30924 18.5853 9.18555 19.0996 9.18555C19.6074 9.18555 20.0664 9.30924 20.4766 9.55664C20.8867 9.80404 21.2122 10.1361 21.4531 10.5527C21.694 10.9694 21.8145 11.4316 21.8145 11.9395C21.8145 12.4473 21.694 12.9095 21.4531 13.3262C21.2122 13.7363 20.8867 14.0618 20.4766 14.3027C20.0664 14.5436 19.6074 14.6641 19.0996 14.6641ZM11.9902 23.5215C12.7715 23.5215 13.4844 23.3294 14.1289 22.9453C14.7734 22.5612 15.2878 22.0469 15.6719 21.4023C16.056 20.7578 16.248 20.0449 16.248 19.2637C16.248 18.4889 16.056 17.7793 15.6719 17.1348C15.2878 16.4902 14.7734 15.9759 14.1289 15.5918C13.4844 15.2077 12.7715 15.0156 11.9902 15.0156C11.209 15.0156 10.4961 15.2077 9.85156 15.5918C9.20703 15.9759 8.69271 16.4902 8.30859 17.1348C7.92448 17.7793 7.73242 18.4889 7.73242 19.2637C7.73242 20.0449 7.92448 20.7578 8.30859 21.4023C8.69271 22.0469 9.20703 22.5612 9.85156 22.9453C10.4961 23.3294 11.209 23.5215 11.9902 23.5215ZM11.9902 21.9883C11.4824 21.9883 11.0202 21.8678 10.6035 21.627C10.1934 21.3861 9.86458 21.0605 9.61719 20.6504C9.3763 20.2402 9.25586 19.778 9.25586 19.2637C9.25586 18.7559 9.3763 18.2936 9.61719 17.877C9.86458 17.4603 10.1934 17.1283 10.6035 16.8809C11.0202 16.6335 11.4824 16.5098 11.9902 16.5098C12.5046 16.5098 12.9668 16.6335 13.377 16.8809C13.7871 17.1283 14.1126 17.4603 14.3535 17.877C14.5944 18.2936 14.7148 18.7559 14.7148 19.2637C14.7148 19.778 14.5944 20.2402 14.3535 20.6504C14.1126 21.0605 13.7871 21.3861 13.377 21.627C12.9668 21.8678 12.5046 21.9883 11.9902 21.9883ZM4.90039 16.1973C5.68164 16.1973 6.39128 16.0052 7.0293 15.6211C7.67383 15.2305 8.18815 14.7129 8.57227 14.0684C8.96289 13.4238 9.1582 12.7142 9.1582 11.9395C9.1582 11.1647 8.96289 10.4551 8.57227 9.81055C8.18815 9.16602 7.67383 8.65169 7.0293 8.26758C6.39128 7.88346 5.68164 7.69141 4.90039 7.69141C4.11914 7.69141 3.40625 7.88346 2.76172 8.26758C2.11719 8.65169 1.60286 9.16602 1.21875 9.81055C0.834635 10.4551 0.642578 11.1647 0.642578 11.9395C0.642578 12.7142 0.834635 13.4238 1.21875 14.0684C1.60286 14.7129 2.11719 15.2305 2.76172 15.6211C3.40625 16.0052 4.11914 16.1973 4.90039 16.1973Z" fill="black"/>
</svg>
