<svg width="28" height="18" viewBox="0 0 28 18" fill="none" xmlns="http://www.w3.org/2000/svg">
<path d="M12.9551 17.8945H25.2207C25.9889 17.8945 26.5293 17.7839 26.8418 17.5625C27.1543 17.3477 27.3105 17.0254 27.3105 16.5957C27.3105 15.9707 27.1185 15.3099 26.7344 14.6133C26.3568 13.9167 25.8099 13.2656 25.0938 12.6602C24.3841 12.0482 23.5215 11.5534 22.5059 11.1758C21.4967 10.7917 20.3574 10.5996 19.0879 10.5996C17.8249 10.5996 16.6855 10.7917 15.6699 11.1758C14.6608 11.5534 13.7982 12.0482 13.082 12.6602C12.3659 13.2656 11.819 13.9167 11.4414 14.6133C11.0638 15.3099 10.875 15.9707 10.875 16.5957C10.875 17.0254 11.028 17.3477 11.334 17.5625C11.6465 17.7839 12.1868 17.8945 12.9551 17.8945ZM19.0977 8.85156C19.7943 8.85156 20.4388 8.66276 21.0312 8.28516C21.6237 7.90104 22.099 7.38346 22.457 6.73242C22.8151 6.08138 22.9941 5.34896 22.9941 4.53516C22.9941 3.73438 22.8151 3.01823 22.457 2.38672C22.099 1.7487 21.6237 1.2474 21.0312 0.882812C20.4388 0.518229 19.7943 0.335938 19.0977 0.335938C18.401 0.335938 17.7565 0.521484 17.1641 0.892578C16.5716 1.26367 16.0931 1.76823 15.7285 2.40625C15.3704 3.04427 15.1914 3.76042 15.1914 4.55469C15.1914 5.36198 15.3704 6.09115 15.7285 6.74219C16.0866 7.38672 16.5618 7.90104 17.1543 8.28516C17.7467 8.66276 18.3945 8.85156 19.0977 8.85156ZM2.4082 17.8945H9.82031C9.56641 17.5234 9.44596 17.0775 9.45898 16.5566C9.47201 16.0358 9.59245 15.4889 9.82031 14.916C10.0482 14.3431 10.3607 13.7897 10.7578 13.2559C11.1615 12.7155 11.627 12.2402 12.1543 11.8301C11.6074 11.4655 10.9792 11.166 10.2695 10.9316C9.56641 10.6908 8.75911 10.5703 7.84766 10.5703C6.7474 10.5703 5.75456 10.7526 4.86914 11.1172C3.99023 11.4753 3.23828 11.9505 2.61328 12.543C1.99479 13.1289 1.51953 13.7702 1.1875 14.4668C0.855469 15.1634 0.689453 15.8503 0.689453 16.5273C0.689453 16.9635 0.819661 17.2988 1.08008 17.5332C1.34701 17.7741 1.78971 17.8945 2.4082 17.8945ZM7.84766 9.07617C8.45964 9.07617 9.02279 8.91016 9.53711 8.57812C10.0514 8.24609 10.4648 7.79688 10.7773 7.23047C11.0898 6.65755 11.2461 6.01953 11.2461 5.31641C11.2461 4.61328 11.0898 3.98828 10.7773 3.44141C10.4648 2.88802 10.0482 2.45508 9.52734 2.14258C9.01302 1.82357 8.45312 1.66406 7.84766 1.66406C7.2487 1.66406 6.6888 1.82682 6.16797 2.15234C5.65365 2.47135 5.23698 2.90755 4.91797 3.46094C4.59896 4.01432 4.44271 4.63932 4.44922 5.33594C4.44922 6.03255 4.60547 6.66406 4.91797 7.23047C5.23047 7.79688 5.64388 8.24609 6.1582 8.57812C6.67904 8.91016 7.24219 9.07617 7.84766 9.07617Z" fill="#462255"/>
</svg>
