<svg width="42" height="40" viewBox="0 0 42 40" fill="none" xmlns="http://www.w3.org/2000/svg">
<path d="M18.6006 23.3721H26.5234C26.7285 23.3721 26.9108 23.3037 27.0703 23.167C27.2298 23.0257 27.3096 22.8389 27.3096 22.6064C27.3096 22.374 27.2298 22.1895 27.0703 22.0527C26.9108 21.916 26.7285 21.8477 26.5234 21.8477H18.8125C18.6986 21.8477 18.6051 21.8112 18.5322 21.7383C18.4639 21.6608 18.4206 21.5583 18.4023 21.4307L17.3564 14.0889C17.3063 13.7425 17.1878 13.4827 17.001 13.3096C16.8141 13.1318 16.5042 13.043 16.0713 13.043H13.8223C13.5944 13.043 13.3939 13.1273 13.2207 13.2959C13.0521 13.4645 12.9678 13.6673 12.9678 13.9043C12.9678 14.1367 13.0521 14.3395 13.2207 14.5127C13.3939 14.6813 13.5944 14.7656 13.8223 14.7656H15.7021L16.7002 21.5742C16.7822 22.1348 16.9782 22.5745 17.2881 22.8936C17.598 23.2126 18.0355 23.3721 18.6006 23.3721ZM17.5137 20.7402H26.6396C27.2002 20.7402 27.6354 20.583 27.9453 20.2686C28.2598 19.9495 28.458 19.5052 28.54 18.9355L28.998 15.8184C29.0072 15.7682 29.014 15.7158 29.0186 15.6611C29.0277 15.6019 29.0322 15.5449 29.0322 15.4902C29.0322 15.2441 28.9502 15.0413 28.7861 14.8818C28.6266 14.7178 28.3896 14.6357 28.0752 14.6357H16.8711V16.1602H27.207L26.8516 18.8125C26.8333 18.9401 26.79 19.0404 26.7217 19.1133C26.6579 19.1816 26.5667 19.2158 26.4482 19.2158H17.5068L17.5137 20.7402ZM19.1885 26.9541C19.5531 26.9541 19.863 26.8265 20.1182 26.5713C20.3779 26.3161 20.5078 26.0039 20.5078 25.6348C20.5078 25.2702 20.3779 24.958 20.1182 24.6982C19.863 24.443 19.5531 24.3154 19.1885 24.3154C18.9424 24.3154 18.7191 24.3747 18.5186 24.4932C18.3226 24.6117 18.1631 24.7712 18.04 24.9717C17.9215 25.1722 17.8623 25.3932 17.8623 25.6348C17.8623 25.8809 17.9215 26.1042 18.04 26.3047C18.1631 26.5052 18.3226 26.6624 18.5186 26.7764C18.7191 26.8949 18.9424 26.9541 19.1885 26.9541ZM25.3818 26.9541C25.751 26.9541 26.0632 26.8265 26.3184 26.5713C26.5781 26.3161 26.708 26.0039 26.708 25.6348C26.708 25.2702 26.5781 24.958 26.3184 24.6982C26.0632 24.443 25.751 24.3154 25.3818 24.3154C25.1403 24.3154 24.9193 24.3747 24.7188 24.4932C24.5182 24.6117 24.3587 24.7712 24.2402 24.9717C24.1217 25.1722 24.0625 25.3932 24.0625 25.6348C24.0625 26.0039 24.1924 26.3161 24.4521 26.5713C24.7119 26.8265 25.0218 26.9541 25.3818 26.9541Z" fill="white"/>
</svg>
