<svg width="40" height="40" viewBox="0 0 40 40" fill="none" xmlns="http://www.w3.org/2000/svg">
<rect width="40" height="40" fill="white"/>
<path d="M14.9258 20.0781C15.0508 20.0573 15.1758 20.0417 15.3008 20.0312C15.4258 20.0156 15.5534 20.0078 15.6836 20.0078C15.8138 20.0078 15.944 20.0156 16.0742 20.0312C16.2044 20.0417 16.3346 20.0573 16.4648 20.0781V13.4922C16.4648 13.1328 16.5586 12.8542 16.7461 12.6562C16.9336 12.4583 17.2174 12.3594 17.5977 12.3594H20.9258V16.6406C20.9258 17.1979 21.0612 17.6146 21.332 17.8906C21.6081 18.1667 22.0247 18.3047 22.582 18.3047H26.793V25.0859C26.793 25.4453 26.6992 25.7214 26.5117 25.9141C26.3242 26.1068 26.0404 26.2031 25.6602 26.2031H20.6758C20.6289 26.4792 20.556 26.7448 20.457 27C20.3633 27.2604 20.2435 27.5078 20.0977 27.7422H25.7852C26.6237 27.7422 27.2565 27.5234 27.6836 27.0859C28.1107 26.6536 28.3242 26.0182 28.3242 25.1797V18.0938C28.3242 17.7292 28.3034 17.4219 28.2617 17.1719C28.2201 16.9167 28.1393 16.6849 28.0195 16.4766C27.9049 16.263 27.7331 16.0417 27.5039 15.8125L23.4102 11.6484C23.1914 11.4245 22.9779 11.2552 22.7695 11.1406C22.5612 11.0208 22.3346 10.9401 22.0898 10.8984C21.8451 10.8516 21.5586 10.8281 21.2305 10.8281H17.4648C16.6263 10.8281 15.9935 11.0469 15.5664 11.4844C15.1393 11.9167 14.9258 12.5521 14.9258 13.3906V20.0781ZM22.2773 16.4922V12.5703L26.582 16.9531H22.7305C22.569 16.9531 22.4518 16.9167 22.3789 16.8438C22.3112 16.7708 22.2773 16.6536 22.2773 16.4922ZM15.6992 29.1719C16.2409 29.1719 16.7539 29.0651 17.2383 28.8516C17.7279 28.6432 18.1576 28.3542 18.5273 27.9844C18.9023 27.6146 19.194 27.1849 19.4023 26.6953C19.6159 26.2109 19.7227 25.6953 19.7227 25.1484C19.7227 24.5964 19.6159 24.0781 19.4023 23.5938C19.194 23.1042 18.9049 22.6745 18.5352 22.3047C18.1654 21.9349 17.7383 21.6458 17.2539 21.4375C16.7695 21.2292 16.2513 21.125 15.6992 21.125C15.1471 21.125 14.6289 21.2292 14.1445 21.4375C13.6602 21.6458 13.2331 21.9375 12.8633 22.3125C12.4935 22.6823 12.2044 23.1094 11.9961 23.5938C11.7826 24.0781 11.6758 24.5964 11.6758 25.1484C11.6758 25.7005 11.7826 26.2188 11.9961 26.7031C12.2044 27.1875 12.4935 27.6146 12.8633 27.9844C13.2331 28.3594 13.6602 28.651 14.1445 28.8594C14.6289 29.0677 15.1471 29.1719 15.6992 29.1719ZM15.6992 27.6953C15.5378 27.6953 15.4076 27.6458 15.3086 27.5469C15.2148 27.4479 15.168 27.3203 15.168 27.1641V25.6797H13.6836C13.5273 25.6797 13.3997 25.6302 13.3008 25.5312C13.2018 25.4375 13.1523 25.3099 13.1523 25.1484C13.1523 24.987 13.2018 24.8594 13.3008 24.7656C13.3997 24.6667 13.5273 24.6172 13.6836 24.6172H15.168V23.1328C15.168 22.9766 15.2148 22.849 15.3086 22.75C15.4076 22.651 15.5378 22.6016 15.6992 22.6016C15.8607 22.6016 15.9883 22.651 16.082 22.75C16.181 22.849 16.2305 22.9766 16.2305 23.1328V24.6172H17.7148C17.8711 24.6172 17.9987 24.6667 18.0977 24.7656C18.1966 24.8594 18.2461 24.987 18.2461 25.1484C18.2461 25.3099 18.1966 25.4375 18.0977 25.5312C17.9987 25.6302 17.8711 25.6797 17.7148 25.6797H16.2305V27.1641C16.2305 27.3203 16.181 27.4479 16.082 27.5469C15.9883 27.6458 15.8607 27.6953 15.6992 27.6953Z" fill="#462255"/>
</svg>
