<svg width="48" height="48" viewBox="0 0 48 48" fill="none" xmlns="http://www.w3.org/2000/svg">
<path d="M19.3242 32.751H24.1406C23.9121 32.5518 23.7012 32.332 23.5078 32.0918C23.3145 31.8574 23.1445 31.6055 22.998 31.3359H19.4033C18.9463 31.3359 18.6006 31.2217 18.3662 30.9932C18.1318 30.7646 18.0146 30.4307 18.0146 29.9912V16.6846C18.0146 16.251 18.1318 15.917 18.3662 15.6826C18.6006 15.4424 18.9463 15.3223 19.4033 15.3223H28.5879C29.0273 15.3223 29.3672 15.4424 29.6074 15.6826C29.8477 15.917 29.9678 16.251 29.9678 16.6846V24.3574C30.2373 24.498 30.4893 24.668 30.7236 24.8672C30.9639 25.0605 31.1836 25.2715 31.3828 25.5V16.667C31.3828 15.7471 31.1543 15.0586 30.6973 14.6016C30.2461 14.1387 29.5664 13.9072 28.6582 13.9072H19.3242C18.4219 13.9072 17.7422 14.1387 17.2852 14.6016C16.8281 15.0645 16.5996 15.7529 16.5996 16.667V29.9912C16.5996 30.9111 16.8252 31.5996 17.2764 32.0566C17.7334 32.5195 18.416 32.751 19.3242 32.751ZM20.6689 18.9082H27.3311C27.4834 18.9082 27.6123 18.8555 27.7178 18.75C27.8232 18.6387 27.876 18.5068 27.876 18.3545C27.876 18.208 27.8232 18.085 27.7178 17.9854C27.6123 17.8799 27.4834 17.8271 27.3311 17.8271H20.6689C20.5049 17.8271 20.3701 17.8799 20.2646 17.9854C20.165 18.085 20.1152 18.208 20.1152 18.3545C20.1152 18.5068 20.165 18.6387 20.2646 18.75C20.3701 18.8555 20.5049 18.9082 20.6689 18.9082ZM20.6689 21.9668H27.3311C27.4834 21.9668 27.6123 21.9141 27.7178 21.8086C27.8232 21.7031 27.876 21.5742 27.876 21.4219C27.876 21.2695 27.8232 21.1436 27.7178 21.0439C27.6123 20.9385 27.4834 20.8857 27.3311 20.8857H20.6689C20.5049 20.8857 20.3701 20.9385 20.2646 21.0439C20.165 21.1436 20.1152 21.2695 20.1152 21.4219C20.1152 21.5742 20.165 21.7031 20.2646 21.8086C20.3701 21.9141 20.5049 21.9668 20.6689 21.9668ZM27.4365 32.751C28.1631 32.751 28.8252 32.5723 29.4229 32.2148C30.0205 31.8633 30.4951 31.3887 30.8467 30.791C31.2041 30.1934 31.3828 29.5312 31.3828 28.8047C31.3828 28.0723 31.2041 27.4072 30.8467 26.8096C30.4951 26.2119 30.0205 25.7344 29.4229 25.377C28.8252 25.0195 28.1631 24.8408 27.4365 24.8408C26.71 24.8408 26.0479 25.0195 25.4502 25.377C24.8525 25.7344 24.3721 26.2148 24.0088 26.8184C23.6514 27.416 23.4727 28.0781 23.4727 28.8047C23.4727 29.5312 23.6514 30.1934 24.0088 30.791C24.3721 31.3887 24.8525 31.8633 25.4502 32.2148C26.0479 32.5723 26.71 32.751 27.4365 32.751ZM27.4365 31.4941C26.9385 31.4941 26.4844 31.3711 26.0742 31.125C25.6699 30.8848 25.3447 30.5596 25.0986 30.1494C24.8525 29.7451 24.7295 29.2969 24.7295 28.8047C24.7295 28.3125 24.8525 27.8643 25.0986 27.46C25.3447 27.0498 25.6699 26.7217 26.0742 26.4756C26.4844 26.2295 26.9385 26.1064 27.4365 26.1064C27.9229 26.1064 28.3682 26.2295 28.7725 26.4756C29.1826 26.7217 29.5078 27.0498 29.748 27.46C29.9941 27.8643 30.1172 28.3125 30.1172 28.8047C30.1172 29.2969 29.9941 29.7451 29.748 30.1494C29.5078 30.5596 29.1855 30.8848 28.7812 31.125C28.377 31.3711 27.9287 31.4941 27.4365 31.4941ZM32.209 34.377C32.4141 34.377 32.584 34.3037 32.7188 34.1572C32.8535 34.0166 32.9209 33.835 32.9209 33.6123C32.9209 33.5186 32.8975 33.4219 32.8506 33.3223C32.8096 33.2285 32.751 33.1465 32.6748 33.0762L30.2139 30.6064L29.0977 31.6084L31.5674 34.0869C31.7607 34.2803 31.9746 34.377 32.209 34.377Z" fill="#462255"/>
</svg>
