<svg width="40" height="40" viewBox="0 0 40 40" fill="none" xmlns="http://www.w3.org/2000/svg">
<path d="M12.2111 28.6641H27.9631C28.9006 28.6641 29.6265 28.3939 30.1408 27.8535C30.6616 27.3197 30.9221 26.5319 30.9221 25.4902V17.6387C30.6421 17.7559 30.3491 17.8405 30.0432 17.8926C29.7437 17.9447 29.4377 17.9642 29.1252 17.9512V25.4316C29.1252 25.9004 29.0015 26.2552 28.7541 26.4961C28.5132 26.7305 28.1682 26.8477 27.7189 26.8477H12.2111C11.7554 26.8477 11.4071 26.7305 11.1662 26.4961C10.9253 26.2552 10.8049 25.8971 10.8049 25.4219V14.7578C10.8049 14.2891 10.9253 13.9375 11.1662 13.7031C11.4071 13.4622 11.7554 13.3418 12.2111 13.3418H24.4963C24.4702 13.0293 24.4833 12.7201 24.5353 12.4141C24.5874 12.1016 24.6688 11.8053 24.7795 11.5254H11.967C11.0295 11.5254 10.3003 11.7956 9.77948 12.3359C9.26516 12.8698 9.008 13.6543 9.008 14.6895V25.4902C9.008 26.5319 9.27818 27.3197 9.81854 27.8535C10.3589 28.3939 11.1564 28.6641 12.2111 28.6641ZM19.9846 22.7559C20.3491 22.7559 20.704 22.6777 21.049 22.5215C21.3941 22.3587 21.7424 22.1048 22.0939 21.7598L26.6935 17.2383C26.4592 17.0885 26.2378 16.9193 26.0295 16.7305C25.8277 16.5417 25.6454 16.3366 25.4826 16.1152L21.0978 20.4414C20.8895 20.6432 20.6942 20.7897 20.5119 20.8809C20.3361 20.972 20.1603 21.0176 19.9846 21.0176C19.7958 21.0176 19.6102 20.972 19.4279 20.8809C19.2521 20.7897 19.0633 20.6432 18.8615 20.4414L11.1564 12.8242L9.99432 14.0156L17.8654 21.7598C18.2105 22.1048 18.5588 22.3587 18.9103 22.5215C19.2619 22.6777 19.62 22.7559 19.9846 22.7559ZM28.7736 27.3164L29.9553 26.1348L23.1584 19.4062L21.9865 20.5879L28.7736 27.3164ZM11.3029 27.1992L17.7971 20.7539L16.6252 19.582L10.1213 26.0273L11.3029 27.1992ZM29.2326 16.5938C29.8381 16.5938 30.3947 16.4408 30.9025 16.1348C31.4168 15.8288 31.827 15.4186 32.133 14.9043C32.439 14.39 32.592 13.8268 32.592 13.2148C32.592 12.5964 32.439 12.0332 32.133 11.5254C31.827 11.0111 31.4168 10.6009 30.9025 10.2949C30.3947 9.98893 29.8381 9.83594 29.2326 9.83594C28.6076 9.83594 28.0412 9.98893 27.5334 10.2949C27.0256 10.6009 26.6187 11.0111 26.3127 11.5254C26.0067 12.0332 25.8537 12.5964 25.8537 13.2148C25.8537 13.8268 26.0067 14.39 26.3127 14.9043C26.6187 15.4186 27.0256 15.8288 27.5334 16.1348C28.0412 16.4408 28.6076 16.5938 29.2326 16.5938Z" fill="#AA4465"/>
</svg>
