<svg width="40" height="40" viewBox="0 0 40 40" fill="none" xmlns="http://www.w3.org/2000/svg">
<path d="M12.2461 28.5708H27.7539C28.8086 28.5708 29.6061 28.3006 30.1465 27.7603C30.6868 27.2264 30.957 26.4386 30.957 25.397V15.7876C30.957 15.3709 30.931 15.0161 30.8789 14.7231C30.8333 14.4237 30.7552 14.1665 30.6445 13.9517C30.5404 13.7303 30.3939 13.5252 30.2051 13.3364C30.0228 13.1476 29.7949 12.9491 29.5215 12.7407L22.1875 7.09619C21.7839 6.7902 21.416 6.55257 21.084 6.3833C20.752 6.21403 20.3906 6.12939 20 6.12939C19.6094 6.12939 19.248 6.21403 18.916 6.3833C18.584 6.55257 18.2161 6.7902 17.8125 7.09619L10.4785 12.7407C10.2051 12.9491 9.97396 13.1476 9.78516 13.3364C9.60286 13.5252 9.45638 13.7303 9.3457 13.9517C9.24154 14.1665 9.16341 14.4237 9.11133 14.7231C9.06576 15.0161 9.04297 15.3709 9.04297 15.7876V25.397C9.04297 26.4386 9.31315 27.2264 9.85352 27.7603C10.3939 28.3006 11.1914 28.5708 12.2461 28.5708ZM12.2461 26.7544C11.7904 26.7544 11.4421 26.634 11.2012 26.3931C10.9603 26.1587 10.8398 25.8039 10.8398 25.3286V15.5728C10.8398 15.3254 10.8626 15.117 10.9082 14.9478C10.9603 14.7785 11.0384 14.6287 11.1426 14.4985C11.2467 14.3618 11.3802 14.2284 11.543 14.0981L18.8379 8.50244C19.0723 8.33317 19.2708 8.20296 19.4336 8.11182C19.5964 8.01416 19.7852 7.96533 20 7.96533C20.2148 7.96533 20.4036 8.01416 20.5664 8.11182C20.7292 8.20296 20.9277 8.33317 21.1621 8.50244L28.4473 14.0981C28.6165 14.2284 28.75 14.3618 28.8477 14.4985C28.9518 14.6287 29.0299 14.7785 29.082 14.9478C29.1341 15.117 29.1602 15.3254 29.1602 15.5728V25.3286C29.1602 25.8039 29.0365 26.1587 28.7891 26.3931C28.5482 26.634 28.2031 26.7544 27.7539 26.7544H12.2461ZM10.2441 26.4126L11.416 27.5845L18.877 20.231C19.0788 20.0291 19.2676 19.8826 19.4434 19.7915C19.6257 19.7004 19.8079 19.6548 19.9902 19.6548C20.166 19.6548 20.3451 19.7004 20.5273 19.7915C20.7096 19.8826 20.9017 20.0291 21.1035 20.231L28.5645 27.5845L29.7363 26.4126L22.1094 18.9126C21.7513 18.5675 21.3997 18.3169 21.0547 18.1606C20.7096 18.0044 20.3548 17.9263 19.9902 17.9263C19.6257 17.9263 19.2676 18.0044 18.916 18.1606C18.571 18.3169 18.2227 18.5675 17.8711 18.9126L10.2441 26.4126ZM16.3281 20.8267L17.5195 19.6646L11.4551 13.6587L10.2832 14.8403L16.3281 20.8267ZM22.4707 19.6646L23.6426 20.8267L29.6875 14.8403L28.5156 13.6587L22.4707 19.6646Z" fill="#150A1A"/>
</svg>
