<svg width="40" height="40" viewBox="0 0 40 40" fill="none" xmlns="http://www.w3.org/2000/svg">
<path d="M12.2461 28.5693H27.998C28.9355 28.5693 29.6615 28.2992 30.1758 27.7588C30.6966 27.2249 30.957 26.4372 30.957 25.3955V14.5947C30.957 13.5596 30.6868 12.7751 30.1465 12.2412C29.6061 11.7008 28.8086 11.4307 27.7539 11.4307H12.002C11.0645 11.4307 10.3353 11.7008 9.81445 12.2412C9.30013 12.7751 9.04297 13.5596 9.04297 14.5947V25.3955C9.04297 26.4372 9.31315 27.2249 9.85352 27.7588C10.3939 28.2992 11.1914 28.5693 12.2461 28.5693ZM12.2461 26.7529C11.7904 26.7529 11.4421 26.6357 11.2012 26.4014C10.9603 26.1605 10.8398 25.8024 10.8398 25.3271V14.6631C10.8398 14.1943 10.9603 13.8428 11.2012 13.6084C11.4421 13.3675 11.7904 13.2471 12.2461 13.2471H27.7539C28.2031 13.2471 28.5482 13.3675 28.7891 13.6084C29.0365 13.8428 29.1602 14.1976 29.1602 14.6729V25.3369C29.1602 25.8057 29.0365 26.1605 28.7891 26.4014C28.5482 26.6357 28.2031 26.7529 27.7539 26.7529H12.2461ZM20.0195 22.6611C20.3841 22.6611 20.7389 22.583 21.084 22.4268C21.429 22.264 21.7773 22.0101 22.1289 21.665L29.9902 13.9404L28.8184 12.7588L21.1328 20.3467C20.9245 20.5485 20.7292 20.695 20.5469 20.7861C20.3711 20.8773 20.1953 20.9229 20.0195 20.9229C19.8307 20.9229 19.6452 20.8773 19.4629 20.7861C19.2871 20.6885 19.0983 20.542 18.8965 20.3467L11.1816 12.7197L10 13.9014L17.9004 21.665C18.2454 22.0101 18.5938 22.264 18.9453 22.4268C19.2969 22.583 19.6549 22.6611 20.0195 22.6611ZM28.6914 27.0947L29.8633 25.9131L23.6328 19.7412L22.4512 20.9131L28.6914 27.0947ZM10.1562 25.9229L11.3281 27.1045L17.5781 20.9131L16.3965 19.7412L10.1562 25.9229Z" fill="#150A1A"/>
</svg>
