<svg width="80" height="80" viewBox="0 0 80 80" fill="none" xmlns="http://www.w3.org/2000/svg">
<path d="M29.9336 48.6719C29.3477 48.6719 28.8984 48.5195 28.5859 48.2148C28.2734 47.9023 28.1172 47.4414 28.1172 46.832V34.2812C28.1172 33.6719 28.2734 33.2109 28.5859 32.8984C28.8984 32.5859 29.3477 32.4297 29.9336 32.4297H50.0664C50.6445 32.4297 51.0898 32.5859 51.4023 32.8984C51.7227 33.2109 51.8828 33.6719 51.8828 34.2812V46.832C51.8828 47.4414 51.7227 47.9023 51.4023 48.2148C51.0898 48.5195 50.6445 48.6719 50.0664 48.6719H29.9336Z" fill="white"/>
<path d="M31.4922 46.457H34.3633C34.707 46.457 34.9844 46.3516 35.1953 46.1406C35.4062 45.9297 35.5117 45.6602 35.5117 45.332V43.1641C35.5117 42.8281 35.4062 42.5586 35.1953 42.3555C34.9844 42.1445 34.707 42.0391 34.3633 42.0391H31.4922C31.1484 42.0391 30.8711 42.1445 30.6602 42.3555C30.4492 42.5586 30.3438 42.8281 30.3438 43.1641V45.332C30.3438 45.6602 30.4492 45.9297 30.6602 46.1406C30.8711 46.3516 31.1484 46.457 31.4922 46.457ZM27.1797 37.8672H52.832V35.207H27.1797V37.8672ZM29.9102 50.5586H50.0898C51.3164 50.5586 52.2344 50.2539 52.8438 49.6445C53.4609 49.043 53.7695 48.1406 53.7695 46.9375V34.1758C53.7695 32.9727 53.4609 32.0664 52.8438 31.457C52.2344 30.8477 51.3164 30.543 50.0898 30.543H29.9102C28.6836 30.543 27.7617 30.8477 27.1445 31.457C26.5352 32.0586 26.2305 32.9648 26.2305 34.1758V46.9375C26.2305 48.1406 26.5352 49.043 27.1445 49.6445C27.7617 50.2539 28.6836 50.5586 29.9102 50.5586ZM29.9336 48.6719C29.3477 48.6719 28.8984 48.5195 28.5859 48.2148C28.2734 47.9023 28.1172 47.4414 28.1172 46.832V34.2812C28.1172 33.6719 28.2734 33.2109 28.5859 32.8984C28.8984 32.5859 29.3477 32.4297 29.9336 32.4297H50.0664C50.6445 32.4297 51.0898 32.5859 51.4023 32.8984C51.7227 33.2109 51.8828 33.6719 51.8828 34.2812V46.832C51.8828 47.4414 51.7227 47.9023 51.4023 48.2148C51.0898 48.5195 50.6445 48.6719 50.0664 48.6719H29.9336Z" fill="black"/>
<rect x="45" y="25" width="14" height="14" rx="7" fill="#AB2237"/>
<path d="M50.7908 34H53.3408C53.3828 34 53.4128 33.97 53.4128 33.922V33.358C53.4128 33.31 53.3828 33.28 53.3408 33.28H52.5248V30.118C52.5248 30.07 52.4948 30.04 52.4468 30.04H52.2908C52.2608 30.04 52.2188 30.046 52.1888 30.058L50.8148 30.496C50.7728 30.508 50.7548 30.538 50.7548 30.586V31.138C50.7548 31.198 50.7848 31.216 50.8388 31.198L51.6848 30.934V33.28H50.7908C50.7428 33.28 50.7128 33.31 50.7128 33.358V33.922C50.7128 33.97 50.7428 34 50.7908 34Z" fill="white"/>
<rect x="45" y="25" width="14" height="14" rx="7" stroke="white" stroke-width="2"/>
</svg>
